<svg version="1.1" id="Layer_1" xmlns="http://www.w3.org/2000/svg" xmlns:xlink="http://www.w3.org/1999/xlink" x="0px" y="0px"
	 viewBox="0 0 48 48" enable-background="new 0 0 48 48" xml:space="preserve">
<g>
	<path fill="#333" d="M37,15c-2.8,0-5,2.2-5,5v3h-3.5c-0.8,0-1.5,0.7-1.5,1.5v0C27,25.3,27.7,26,28.5,26H32v1H11v-4h3.5
		c0.8,0,1.5-0.7,1.5-1.5v0c0-0.8-0.7-1.5-1.5-1.5H11v-3c0-2.8,2.2-5,5-5h16C34.8,15,37,12.8,37,10s-2.2-5-5-5H16c-2.8,0-5,2.2-5,5
		v3H7.5C6.7,13,6,13.7,6,14.5v0C6,15.3,6.7,16,7.5,16H11v11H7.5c-0.8,0-1.5,0.7-1.5,1.5v0c0,0.8,0.7,1.5,1.5,1.5H11v3
		c0,2.8,2.2,5,5,5h16c2.8,0,5-2.2,5-5s-2.2-5-5-5h-1c-0.6,0-1-0.4-1-1s0.4-1,1-1h1c1.7,0,3,1.3,3,3s-1.3,3-3,3H16
		c-1.7,0-3-1.3-3-3v-3h20v-4H16c-0.6,0-1-0.4-1-1s0.4-1,1-1h16c1.7,0,3-1.3,3-3s-1.3-3-3-3h-1c-0.6,0-1-0.4-1-1s0.4-1,1-1h1
		c2.8,0,5,2.2,5,5v7h3.5c0.8,0,1.5,0.7,1.5,1.5v0c0,0.8-0.7,1.5-1.5,1.5H37v-7C37,17.2,34.8,15,32,15z M16,7h16c1.7,0,3,1.3,3,3
		s-1.3,3-3,3H16c-1.7,0-3-1.3-3-3S14.3,7,16,7z"/>
</g>
</svg> 