<svg width="32" height="32" viewBox="0 0 32 32" fill="none" xmlns="http://www.w3.org/2000/svg">
  <path d="M16 28C12.686 28 10 25.314 10 22C10 20.5 10.5 19.1 11.4 18C10.3 16.5 10 15 10 13.5C10 9.9 12.5 7 16 7C19.5 7 22 9.9 22 13.5C22 15 21.7 16.5 20.6 18C21.5 19.1 22 20.5 22 22C22 25.314 19.314 28 16 28Z" 
        stroke="#D6AE60" 
        stroke-width="2" 
        stroke-linecap="round" 
        stroke-linejoin="round" 
        fill="none"/>
  <path d="M16 4C16 4 14 6 14 8C14 9.1 14.9 10 16 10C17.1 10 18 9.1 18 8C18 6 16 4 16 4Z" 
        stroke="#D6AE60" 
        stroke-width="1.5" 
        stroke-linecap="round" 
        stroke-linejoin="round" 
        fill="none"/>
  <path d="M13 22C13 20.3 14.3 19 16 19C17.7 19 19 20.3 19 22" 
        stroke="#D6AE60" 
        stroke-width="1.5" 
        stroke-linecap="round" 
        opacity="0.6"/>
</svg>