<svg xmlns="http://www.w3.org/2000/svg" viewBox="0 0 48 48" fill="none">
  <!-- Teacup -->
  <path d="M8 20v12c0 6.627 5.373 12 12 12h8c6.627 0 12-5.373 12-12V20" stroke="#D6AE60" stroke-width="2" fill="none"/>
  <path d="M6 20h36" stroke="#D6AE60" stroke-width="2"/>
  <path d="M42 24c2.209 0 4-1.791 4-4s-1.791-4-4-4" stroke="#D6AE60" stroke-width="2" fill="none"/>
  
  <!-- Steam -->
  <g className="steam" opacity="0.6">
    <path d="M16 16c0-2 1-4 3-4s3 2 3 4-1 4-3 4-3-2-3-4z" fill="#D6AE60" opacity="0.6">
      <animate attributeName="opacity" values="0;1;0" dur="4s" repeatCount="indefinite" begin="0s"/>
      <animateTransform attributeName="transform" type="translate" values="0,6;0,-12" dur="4s" repeatCount="indefinite" begin="0s"/>
    </path>
    <path d="M24 16c0-2 1-4 3-4s3 2 3 4-1 4-3 4-3-2-3-4z" fill="#D6AE60" opacity="0.6">
      <animate attributeName="opacity" values="0;1;0" dur="4s" repeatCount="indefinite" begin="1s"/>
      <animateTransform attributeName="transform" type="translate" values="0,6;0,-12" dur="4s" repeatCount="indefinite" begin="1s"/>
    </path>
    <path d="M32 16c0-2 1-4 3-4s3 2 3 4-1 4-3 4-3-2-3-4z" fill="#D6AE60" opacity="0.6">
      <animate attributeName="opacity" values="0;1;0" dur="4s" repeatCount="indefinite" begin="2s"/>
      <animateTransform attributeName="transform" type="translate" values="0,6;0,-12" dur="4s" repeatCount="indefinite" begin="2s"/>
    </path>
  </g>
</svg>