<svg width="200" height="200" viewBox="0 0 200 200" fill="none" xmlns="http://www.w3.org/2000/svg">
  <!-- Background circle -->
  <circle cx="100" cy="100" r="95" fill="#FDF7F2" stroke="#D4B5A5" stroke-width="2"/>
  
  <!-- Moon phases -->
  <g fill="#D4B5A5" opacity="0.3">
    <circle cx="60" cy="60" r="8"/>
    <circle cx="140" cy="60" r="6"/>
    <circle cx="160" cy="100" r="7"/>
    <circle cx="140" cy="140" r="5"/>
    <circle cx="60" cy="140" r="6"/>
    <circle cx="40" cy="100" r="5"/>
  </g>
  
  <!-- Central moon -->
  <circle cx="100" cy="100" r="45" fill="#D4B5A5" opacity="0.2"/>
  <path d="M75 55 Q90 45 105 55 Q120 65 135 55 Q125 70 120 85 Q115 100 120 115 Q125 130 135 145 Q120 135 105 145 Q90 155 75 145 Q85 130 80 115 Q75 100 80 85 Q85 70 75 55" fill="#D4B5A5" opacity="0.4"/>
  
  <!-- Crown with moon motifs -->
  <path d="M65 70 L80 55 L95 65 L100 50 L105 65 L120 55 L135 70 L125 80 L100 85 L75 80 Z" fill="#D4B5A5" stroke="#3B1E50" stroke-width="1"/>
  <circle cx="85" cy="62" r="3" fill="#FDF7F2"/>
  <circle cx="115" cy="62" r="3" fill="#FDF7F2"/>
  
  <!-- Face -->
  <circle cx="85" cy="95" r="3" fill="#3B1E50"/>
  <circle cx="115" cy="95" r="3" fill="#3B1E50"/>
  <path d="M85 110 Q100 125 115 110" stroke="#3B1E50" stroke-width="2" fill="none"/>
  
  <!-- Stars -->
  <g fill="#D4B5A5" opacity="0.6">
    <path d="M50 80 L52 85 L57 85 L53 89 L55 94 L50 91 L45 94 L47 89 L43 85 L48 85 Z"/>
    <path d="M150 120 L152 125 L157 125 L153 129 L155 134 L150 131 L145 134 L147 129 L143 125 L148 125 Z"/>
    <path d="M70 150 L72 155 L77 155 L73 159 L75 164 L70 161 L65 164 L67 159 L63 155 L68 155 Z"/>
  </g>
  
  <!-- Mystical aura -->
  <g stroke="#D4B5A5" stroke-width="1" opacity="0.5" fill="none">
    <circle cx="100" cy="100" r="60" stroke-dasharray="2,3"/>
    <circle cx="100" cy="100" r="70" stroke-dasharray="1,5"/>
  </g>
</svg>