<svg width="200" height="200" viewBox="0 0 200 200" fill="none" xmlns="http://www.w3.org/2000/svg">
  <!-- Background circle -->
  <circle cx="100" cy="100" r="95" fill="#FDF7F2" stroke="#C8A96B" stroke-width="2"/>
  
  <!-- Wisdom symbols -->
  <g stroke="#C8A96B" stroke-width="2" fill="none">
    <!-- Eye of wisdom -->
    <ellipse cx="100" cy="80" rx="25" ry="15"/>
    <circle cx="100" cy="80" r="8" fill="#C8A96B"/>
    <circle cx="100" cy="80" r="4" fill="#3B1E50"/>
  </g>
  
  <!-- Knowledge scrolls -->
  <g fill="#C8A96B" opacity="0.3">
    <rect x="30" y="130" width="15" height="40" rx="2"/>
    <rect x="155" y="130" width="15" height="40" rx="2"/>
    <rect x="40" y="40" width="12" height="30" rx="2"/>
    <rect x="150" y="40" width="12" height="30" rx="2"/>
  </g>
  
  <!-- Central wisdom circle -->
  <circle cx="100" cy="100" r="45" fill="#C8A96B" opacity="0.2"/>
  <g stroke="#C8A96B" stroke-width="1" fill="none" opacity="0.7">
    <circle cx="100" cy="100" r="35"/>
    <circle cx="100" cy="100" r="25"/>
  </g>
  
  <!-- Crown with wisdom motifs -->
  <path d="M65 70 L80 55 L95 65 L100 50 L105 65 L120 55 L135 70 L125 80 L100 85 L75 80 Z" fill="#C8A96B" stroke="#3B1E50" stroke-width="1"/>
  <circle cx="85" cy="62" r="2" fill="#FDF7F2"/>
  <circle cx="100" cy="57" r="2" fill="#FDF7F2"/>
  <circle cx="115" cy="62" r="2" fill="#FDF7F2"/>
  
  <!-- Face -->
  <circle cx="85" cy="95" r="3" fill="#3B1E50"/>
  <circle cx="115" cy="95" r="3" fill="#3B1E50"/>
  <path d="M85 110 Q100 125 115 110" stroke="#3B1E50" stroke-width="2" fill="none"/>
  
  <!-- Wisdom patterns -->
  <g stroke="#C8A96B" stroke-width="1" opacity="0.4" fill="none">
    <path d="M70 150 Q100 130 130 150"/>
    <path d="M70 50 Q100 70 130 50"/>
    <path d="M50 70 Q70 100 50 130"/>
    <path d="M150 70 Q130 100 150 130"/>
  </g>
  
  <!-- Books/scrolls -->
  <g fill="#C8A96B" opacity="0.5">
    <rect x="85" y="130" width="8" height="25" rx="1"/>
    <rect x="95" y="132" width="8" height="23" rx="1"/>
    <rect x="105" y="131" width="8" height="24" rx="1"/>
  </g>
</svg>