<svg width="200" height="200" viewBox="0 0 200 200" fill="none" xmlns="http://www.w3.org/2000/svg">
  <!-- Background circle -->
  <circle cx="100" cy="100" r="95" fill="#FDF7F2" stroke="#D6AE60" stroke-width="2"/>
  
  <!-- Sun rays -->
  <g stroke="#D6AE60" stroke-width="2" stroke-linecap="round">
    <line x1="100" y1="15" x2="100" y2="35"/>
    <line x1="100" y1="165" x2="100" y2="185"/>
    <line x1="185" y1="100" x2="165" y2="100"/>
    <line x1="35" y1="100" x2="15" y2="100"/>
    <line x1="156.07" y1="43.93" x2="142.13" y2="57.87"/>
    <line x1="57.87" y1="142.13" x2="43.93" y2="156.07"/>
    <line x1="156.07" y1="156.07" x2="142.13" y2="142.13"/>
    <line x1="57.87" y1="57.87" x2="43.93" y2="43.93"/>
  </g>
  
  <!-- Central sun -->
  <circle cx="100" cy="100" r="45" fill="#D6AE60" opacity="0.2"/>
  <circle cx="100" cy="100" r="35" fill="#D6AE60" opacity="0.3"/>
  <circle cx="100" cy="100" r="25" fill="#D6AE60" opacity="0.5"/>
  
  <!-- Crown -->
  <path d="M65 70 L85 50 L100 60 L115 50 L135 70 L125 80 L100 85 L75 80 Z" fill="#D6AE60" stroke="#3B1E50" stroke-width="1"/>
  
  <!-- Face -->
  <circle cx="85" cy="95" r="3" fill="#3B1E50"/>
  <circle cx="115" cy="95" r="3" fill="#3B1E50"/>
  <path d="M85 110 Q100 125 115 110" stroke="#3B1E50" stroke-width="2" fill="none"/>
  
  <!-- Radiating energy -->
  <g stroke="#D6AE60" stroke-width="1" opacity="0.7">
    <circle cx="100" cy="100" r="55" fill="none" stroke-dasharray="3,3"/>
    <circle cx="100" cy="100" r="65" fill="none" stroke-dasharray="2,4"/>
  </g>
</svg>